<svg width="160" height="160" viewBox="0 0 160 160" fill="none" xmlns="http://www.w3.org/2000/svg">
<rect width="160" height="160" fill="#F5F5F5"/>
<path d="M80 148.959C96.2699 149.489 112.935 144.52 124.683 133.251C135.96 122.433 139.591 106.293 140.725 90.7074C141.752 76.5803 137.462 63.1751 130.684 50.7373C123.721 37.958 115.032 26.0475 101.981 19.6064C87.6737 12.5448 71.1492 9.08246 55.9184 13.8362C40.2166 18.737 28.0747 31.0275 19.8145 45.2519C11.5357 59.5082 6.9786 76.1443 10.3664 92.2783C13.6803 108.06 25.1907 120.235 37.6971 130.415C50.009 140.436 64.1335 148.441 80 148.959Z" fill="url(#paint0_linear_0_1)"/>
<g filter="url(#filter0_d_0_1)">
<path d="M106.455 66.7735L109.939 65.0318C120.234 59.884 125.382 57.3101 129.146 59.6363C132.91 61.9626 132.91 67.7181 132.91 79.2291V80.773C132.91 92.2841 132.91 98.0392 129.146 100.366C125.382 102.692 120.234 100.118 109.939 94.9704L106.455 93.2286V66.7735Z" stroke="#0C1892" stroke-opacity="0.78" stroke-width="4.57143" shape-rendering="crispEdges"/>
</g>
<g filter="url(#filter1_d_0_1)">
<path d="M27.0899 77.3545V82.6455C27.0899 100.04 27.0899 108.737 31.894 114.59C32.7734 115.662 33.756 116.644 34.8277 117.524C40.6814 122.328 49.3784 122.328 66.7725 122.328C84.1667 122.328 92.8635 122.328 98.7174 117.524C99.7889 116.644 100.771 115.662 101.651 114.59C106.455 108.737 106.455 100.04 106.455 82.6455V77.3545C106.455 59.9604 106.455 51.2634 101.651 45.4097C100.771 44.338 99.7889 43.3555 98.7174 42.476C92.8635 37.672 84.1667 37.672 66.7725 37.672C49.3784 37.672 40.6814 37.672 34.8277 42.476C33.756 43.3555 32.7734 44.338 31.894 45.4097C29.6304 48.1679 28.4333 51.5574 27.8004 56.1905" stroke="#0C1892" stroke-opacity="0.78" stroke-width="4.57143" stroke-linecap="round" shape-rendering="crispEdges"/>
</g>
<g filter="url(#filter2_d_0_1)">
<path d="M59.296 61.656C59.44 61.832 59.544 62.272 59.608 62.976C59.688 63.68 59.728 64.752 59.728 66.192V72H55.624V66.24C55.624 66.176 55.624 65.864 55.624 65.304C55.624 64.728 55.584 64.376 55.504 64.248C55.456 64.184 55.336 64.136 55.144 64.104C54.968 64.072 54.76 64.056 54.52 64.056L54.112 64.08C53.664 64.096 53.2 64.2 52.72 64.392V72H48.616V61.32H45.376V72H41.056V61.32H37.192V58.32H48.616V57.6L52.72 57.432V60.24C52.72 61.392 52.68 62.16 52.6 62.544L52.624 62.568C53.712 61.336 55.016 60.72 56.536 60.72C57.112 60.72 57.648 60.8 58.144 60.96C58.656 61.12 59.04 61.352 59.296 61.656ZM68.3284 69.12C68.7284 69.12 69.4724 69.08 70.5604 69C70.7044 69 70.9684 68.984 71.3524 68.952L71.7124 71.424C70.4804 72 68.8804 72.288 66.9124 72.288C65.0724 72.288 63.6564 71.824 62.6644 70.896C61.6884 69.968 61.2004 68.568 61.2004 66.696C61.2004 65.736 61.3204 64.808 61.5604 63.912C61.8164 63.016 62.1044 62.392 62.4244 62.04C62.7604 61.688 63.3844 61.384 64.2964 61.128C65.2084 60.872 66.1124 60.744 67.0084 60.744C68.4484 60.744 69.5284 61 70.2484 61.512C70.9684 62.024 71.4404 62.736 71.6644 63.648C71.8884 64.544 72.0004 65.752 72.0004 67.272C70.9124 67.336 69.8484 67.368 68.8084 67.368H65.4004C65.4004 67.88 65.5044 68.264 65.7124 68.52C65.9364 68.776 66.2484 68.944 66.6484 69.024C67.0484 69.088 67.6084 69.12 68.3284 69.12ZM65.6404 63.6C65.5444 63.648 65.4724 63.856 65.4244 64.224C65.3764 64.592 65.3444 65.008 65.3284 65.472H66.5764C67.3284 65.472 67.8724 65.464 68.2084 65.448C68.2084 64.68 68.0964 64.136 67.8724 63.816C67.6644 63.496 67.2964 63.336 66.7684 63.336C66.3364 63.336 65.9604 63.424 65.6404 63.6ZM85.1903 69H81.2063L80.4863 72H76.0703L80.4863 58.32H86.1263L90.3503 72H85.9103L85.1903 69ZM83.1743 61.272L81.7583 66.336H84.6143L83.2703 61.272H83.1743ZM91.5678 58.32H95.8878V72H91.5678V58.32Z" fill="black"/>
</g>
<g filter="url(#filter3_d_0_1)">
<path d="M56.6468 77.2L54.6588 87H52.0267L50.0388 77.2H52.0548L52.8248 81.736L53.3008 84.676H53.3848L53.8608 81.736L54.6308 77.2H56.6468ZM57.3247 87V79.846H59.1727V87H57.3247ZM57.3247 77.2H59.1727V79.09H57.3247V77.2ZM65.7915 87H64.3775L64.1255 86.496C63.9202 86.6827 63.7242 86.8133 63.5375 86.888C63.3602 86.9627 63.0895 87 62.7255 87H61.5075C61.0968 86.608 60.7702 86.0947 60.5275 85.46C60.2942 84.8253 60.1775 84.116 60.1775 83.332C60.1775 82.5387 60.2942 81.8667 60.5275 81.316C60.7702 80.7653 61.1108 80.2753 61.5495 79.846H62.7535C63.2482 79.846 63.6402 79.9767 63.9295 80.238V77.2H65.7915V87ZM63.9295 81.316H62.5855C62.2402 81.904 62.0675 82.6273 62.0675 83.486C62.0675 84.3353 62.2355 85.0167 62.5715 85.53H63.9295V81.316ZM70.2247 81.316H69.1747C69.0347 81.484 68.918 81.7173 68.8247 82.016C68.7407 82.3147 68.6987 82.604 68.6987 82.884H70.7007C70.7193 82.604 70.682 82.3147 70.5887 82.016C70.4953 81.708 70.374 81.4747 70.2247 81.316ZM72.1287 85.53V87H68.5727C67.9193 86.5613 67.4573 86.02 67.1867 85.376C66.9253 84.7227 66.7947 84.0647 66.7947 83.402C66.7947 81.8713 67.3733 80.686 68.5307 79.846H70.7987C71.424 80.3033 71.8487 80.7887 72.0727 81.302C72.2967 81.8153 72.4087 82.3333 72.4087 82.856C72.4087 83.3787 72.3667 83.8267 72.2827 84.2H68.7967C68.8247 84.4147 68.904 84.662 69.0347 84.942C69.1747 85.2127 69.324 85.4087 69.4827 85.53H72.1287ZM77.6041 87H74.5521C73.6188 86.132 73.1521 84.9467 73.1521 83.444C73.1521 82.688 73.2548 82.03 73.4601 81.47C73.6748 80.91 74.0108 80.3687 74.4681 79.846H77.7441C78.2294 80.406 78.5608 80.952 78.7381 81.484C78.9154 82.0067 79.0041 82.66 79.0041 83.444C79.0041 84.9467 78.5374 86.132 77.6041 87ZM75.5461 85.53H76.6101C76.9461 84.8767 77.1141 84.1347 77.1141 83.304C77.1141 82.4733 76.9414 81.8107 76.5961 81.316H75.5461C75.2101 81.792 75.0421 82.4687 75.0421 83.346C75.0421 84.214 75.2101 84.942 75.5461 85.53ZM47.02 99.846V106.258C47.02 106.967 46.9267 107.537 46.74 107.966C46.5627 108.395 46.2033 108.773 45.662 109.1H42.47V107.644H44.864C45.0973 107.504 45.214 107.28 45.214 106.972V106.146C44.8687 106.435 44.318 106.58 43.562 106.58H42.54C41.784 105.675 41.406 104.625 41.406 103.43C41.406 102.571 41.5273 101.871 41.77 101.33C42.0127 100.779 42.3673 100.285 42.834 99.846H43.87C44.4767 99.846 44.9573 100.042 45.312 100.434L45.564 99.846H47.02ZM45.158 101.316H43.8C43.464 101.895 43.296 102.562 43.296 103.318C43.296 104.065 43.4407 104.681 43.73 105.166H45.158V101.316ZM51.3985 101.316H50.3485C50.2085 101.484 50.0918 101.717 49.9985 102.016C49.9145 102.315 49.8725 102.604 49.8725 102.884H51.8745C51.8932 102.604 51.8558 102.315 51.7625 102.016C51.6692 101.708 51.5478 101.475 51.3985 101.316ZM53.3025 105.53V107H49.7465C49.0932 106.561 48.6312 106.02 48.3605 105.376C48.0992 104.723 47.9685 104.065 47.9685 103.402C47.9685 101.871 48.5472 100.686 49.7045 99.846H51.9725C52.5978 100.303 53.0225 100.789 53.2465 101.302C53.4705 101.815 53.5825 102.333 53.5825 102.856C53.5825 103.379 53.5405 103.827 53.4565 104.2H49.9705C49.9985 104.415 50.0778 104.662 50.2085 104.942C50.3485 105.213 50.4978 105.409 50.6565 105.53H53.3025ZM57.6299 99.846H59.1139C59.5246 100.369 59.8046 100.891 59.9539 101.414C60.1033 101.937 60.1779 102.59 60.1779 103.374V107H58.3159V103.234C58.3159 102.347 58.1946 101.708 57.9519 101.316H56.3839V107H54.5219V99.846H55.9779L56.2299 100.35C56.4353 100.163 56.6266 100.033 56.8039 99.958C56.9906 99.8833 57.2659 99.846 57.6299 99.846ZM64.5645 101.316H63.5145C63.3745 101.484 63.2578 101.717 63.1645 102.016C63.0805 102.315 63.0385 102.604 63.0385 102.884H65.0405C65.0592 102.604 65.0218 102.315 64.9285 102.016C64.8352 101.708 64.7138 101.475 64.5645 101.316ZM66.4685 105.53V107H62.9125C62.2592 106.561 61.7972 106.02 61.5265 105.376C61.2652 104.723 61.1345 104.065 61.1345 103.402C61.1345 101.871 61.7132 100.686 62.8705 99.846H65.1385C65.7638 100.303 66.1885 100.789 66.4125 101.302C66.6365 101.815 66.7485 102.333 66.7485 102.856C66.7485 103.379 66.7065 103.827 66.6225 104.2H63.1365C63.1645 104.415 63.2438 104.662 63.3745 104.942C63.5145 105.213 63.6638 105.409 63.8225 105.53H66.4685ZM67.7019 107V99.846H69.0319L69.3819 100.602C69.7553 100.098 70.2266 99.846 70.7959 99.846H71.3419V101.722H69.5639V107H67.7019ZM75.2455 103.766H73.7475C73.5515 104.009 73.4535 104.312 73.4535 104.676C73.4535 105.04 73.5562 105.325 73.7615 105.53H75.2455V103.766ZM72.2355 99.846H75.7075C76.2675 100.182 76.6362 100.569 76.8135 101.008C76.9909 101.437 77.0795 102.025 77.0795 102.772V104.872C77.0795 105.647 77.0982 106.356 77.1355 107H75.5395L75.2875 106.496C74.9235 106.832 74.4102 107 73.7475 107H72.8655C72.0722 106.477 71.6755 105.726 71.6755 104.746C71.6755 103.757 72.0815 102.977 72.8935 102.408H74.2095C74.5735 102.408 74.9142 102.52 75.2315 102.744V102.044C75.2315 101.68 75.0729 101.437 74.7555 101.316H72.2355V99.846ZM78.4849 103.878V101.316H77.5189V99.846H78.4849V97.9H80.3469V99.846H81.4949V101.316H80.3469V104.326C80.3469 104.895 80.4449 105.297 80.6409 105.53H81.4949V107H79.5069C79.0122 106.543 78.7136 106.048 78.6109 105.516C78.5269 105.068 78.4849 104.522 78.4849 103.878ZM86.5455 107H83.4935C82.5602 106.132 82.0935 104.947 82.0935 103.444C82.0935 102.688 82.1962 102.03 82.4015 101.47C82.6162 100.91 82.9522 100.369 83.4095 99.846H86.6855C87.1708 100.406 87.5022 100.952 87.6795 101.484C87.8568 102.007 87.9455 102.66 87.9455 103.444C87.9455 104.947 87.4788 106.132 86.5455 107ZM84.4875 105.53H85.5515C85.8875 104.877 86.0555 104.135 86.0555 103.304C86.0555 102.473 85.8828 101.811 85.5375 101.316H84.4875C84.1515 101.792 83.9835 102.469 83.9835 103.346C83.9835 104.214 84.1515 104.942 84.4875 105.53ZM88.9617 107V99.846H90.2917L90.6417 100.602C91.015 100.098 91.4864 99.846 92.0557 99.846H92.6017V101.722H90.8237V107H88.9617Z" fill="black"/>
</g>
<defs>
<filter id="filter0_d_0_1" x="100.169" y="56.4883" width="39.0265" height="55.0254" filterUnits="userSpaceOnUse" color-interpolation-filters="sRGB">
<feFlood flood-opacity="0" result="BackgroundImageFix"/>
<feColorMatrix in="SourceAlpha" type="matrix" values="0 0 0 0 0 0 0 0 0 0 0 0 0 0 0 0 0 0 127 0" result="hardAlpha"/>
<feOffset dy="4"/>
<feGaussianBlur stdDeviation="2"/>
<feComposite in2="hardAlpha" operator="out"/>
<feColorMatrix type="matrix" values="0 0 0 0 0 0 0 0 0 0 0 0 0 0 0 0 0 0 0.25 0"/>
<feBlend mode="normal" in2="BackgroundImageFix" result="effect1_dropShadow_0_1"/>
<feBlend mode="normal" in="SourceGraphic" in2="effect1_dropShadow_0_1" result="shape"/>
</filter>
<filter id="filter1_d_0_1" x="20.8042" y="35.3862" width="91.9365" height="97.2275" filterUnits="userSpaceOnUse" color-interpolation-filters="sRGB">
<feFlood flood-opacity="0" result="BackgroundImageFix"/>
<feColorMatrix in="SourceAlpha" type="matrix" values="0 0 0 0 0 0 0 0 0 0 0 0 0 0 0 0 0 0 127 0" result="hardAlpha"/>
<feOffset dy="4"/>
<feGaussianBlur stdDeviation="2"/>
<feComposite in2="hardAlpha" operator="out"/>
<feColorMatrix type="matrix" values="0 0 0 0 0 0 0 0 0 0 0 0 0 0 0 0 0 0 0.25 0"/>
<feBlend mode="normal" in2="BackgroundImageFix" result="effect1_dropShadow_0_1"/>
<feBlend mode="normal" in="SourceGraphic" in2="effect1_dropShadow_0_1" result="shape"/>
</filter>
<filter id="filter2_d_0_1" x="33.192" y="57.432" width="66.6958" height="22.856" filterUnits="userSpaceOnUse" color-interpolation-filters="sRGB">
<feFlood flood-opacity="0" result="BackgroundImageFix"/>
<feColorMatrix in="SourceAlpha" type="matrix" values="0 0 0 0 0 0 0 0 0 0 0 0 0 0 0 0 0 0 127 0" result="hardAlpha"/>
<feOffset dy="4"/>
<feGaussianBlur stdDeviation="2"/>
<feComposite in2="hardAlpha" operator="out"/>
<feColorMatrix type="matrix" values="0 0 0 0 0 0 0 0 0 0 0 0 0 0 0 0 0 0 0.25 0"/>
<feBlend mode="normal" in2="BackgroundImageFix" result="effect1_dropShadow_0_1"/>
<feBlend mode="normal" in="SourceGraphic" in2="effect1_dropShadow_0_1" result="shape"/>
</filter>
<filter id="filter3_d_0_1" x="37.406" y="77.2" width="59.1957" height="39.9" filterUnits="userSpaceOnUse" color-interpolation-filters="sRGB">
<feFlood flood-opacity="0" result="BackgroundImageFix"/>
<feColorMatrix in="SourceAlpha" type="matrix" values="0 0 0 0 0 0 0 0 0 0 0 0 0 0 0 0 0 0 127 0" result="hardAlpha"/>
<feOffset dy="4"/>
<feGaussianBlur stdDeviation="2"/>
<feComposite in2="hardAlpha" operator="out"/>
<feColorMatrix type="matrix" values="0 0 0 0 0 0 0 0 0 0 0 0 0 0 0 0 0 0 0.25 0"/>
<feBlend mode="normal" in2="BackgroundImageFix" result="effect1_dropShadow_0_1"/>
<feBlend mode="normal" in="SourceGraphic" in2="effect1_dropShadow_0_1" result="shape"/>
</filter>
<linearGradient id="paint0_linear_0_1" x1="75.0572" y1="11.6452" x2="75.0572" y2="148.997" gradientUnits="userSpaceOnUse">
<stop stop-color="#07EEB7"/>
<stop offset="1" stop-color="#7ED0EC" stop-opacity="0"/>
</linearGradient>
</defs>
</svg>
